<?xml version="1.0" standalone="no"?>
<!DOCTYPE svg PUBLIC "-//W3C//DTD SVG 20010904//EN"
 "http://www.w3.org/TR/2001/REC-SVG-20010904/DTD/svg10.dtd">
<svg version="1.0" xmlns="http://www.w3.org/2000/svg"
 width="64.000000pt" height="64.000000pt" viewBox="0 0 64.000000 64.000000"
 preserveAspectRatio="xMidYMid meet">

<g transform="translate(0.000000,64.000000) scale(0.100000,-0.100000)"
fill="#000000" stroke="none">
<path d="M250 544 c-144 -137 -142 -318 6 -453 31 -28 59 -51 64 -51 5 0 33
23 64 51 148 135 150 316 6 453 -32 31 -64 56 -70 56 -6 0 -38 -25 -70 -56z
m100 -136 c30 -50 35 -93 16 -143 -21 -55 -40 -72 -60 -55 -25 20 -49 96 -42
132 7 39 41 98 56 98 6 0 19 -15 30 -32z"/>
<path d="M7 353 c-12 -11 -8 -77 8 -129 8 -27 31 -69 52 -93 38 -45 120 -91
163 -91 23 0 21 3 -22 48 -56 57 -96 139 -100 207 -1 28 -7 53 -13 57 -13 10
-79 10 -88 1z"/>
<path d="M545 353 c-6 -5 -12 -30 -13 -58 -4 -68 -44 -150 -100 -207 -43 -45
-45 -48 -22 -48 43 0 125 46 163 91 42 49 70 128 65 186 -3 37 -4 38 -43 41
-22 1 -45 -1 -50 -5z"/>
</g>
</svg>
